<svg xmlns="http://www.w3.org/2000/svg"   width="131" height="40" viewBox="0 0 131 40" class="h-10 w-auto"><defs><clipPath id="prefix__a"><path class="fill-current text-white" d="M0-4.162h131v-40H0z" transform="translate(0 44.162)"></path></clipPath><clipPath id="prefix__b"><path class="fill-current text-white " d="M0-4.162h130.566v-40H0z" transform="translate(0 44.162)"></path></clipPath></defs><g clip-path="url(#prefix__a)"><path class="text-white " d="M122.812 0H.007v4.1h122.805a4.014 4.014 0 014.035 3.981v23.836a4.014 4.014 0 01-4.035 3.983H8.195a4.014 4.014 0 01-4.035-3.984v-16.48H.008v16.481A8.145 8.145 0 008.195 40h114.617A8.145 8.145 0 00131 31.917V8.081A8.143 8.143 0 00122.812 0"></path></g><path class="fill-current text-white " d="M0 11.877h4.167V7.764H0z"></path><g clip-path="url(#prefix__b)"><path class="fill-current fill-white text-white " d="M22.543 21.232v7.606H18.69v-7.013c0-2.148-.988-3.136-2.692-3.136-1.852 0-3.186 1.136-3.186 3.58v6.569H8.96V15.552h3.68v1.556a5.816 5.816 0 014.4-1.754c3.137 0 5.507 1.828 5.507 5.877M29.556 22.195c0-4 3.087-6.84 7.409-6.84 2.791 0 4.988 1.21 5.951 3.383l-2.987 1.6a3.315 3.315 0 00-2.989-1.822 3.4 3.4 0 00-3.484 3.679 3.4 3.4 0 003.484 3.679 3.271 3.271 0 002.988-1.827l2.988 1.63c-.96 2.124-3.16 3.359-5.951 3.359-4.322 0-7.409-2.84-7.409-6.841M58.948 15.552v13.285h-3.684v-1.531a5.109 5.109 0 01-4.149 1.729 6.459 6.459 0 01-6.643-6.84 6.458 6.458 0 016.643-6.84 5.1 5.1 0 013.976 1.6v-1.403zm-3.783 6.643a3.366 3.366 0 00-3.383-3.679 3.371 3.371 0 00-3.409 3.679 3.371 3.371 0 003.409 3.678 3.366 3.366 0 003.383-3.678M61.215 27.604l1.284-2.766a9.088 9.088 0 004.616 1.284c1.778 0 2.445-.469 2.445-1.21 0-2.173-8.026.05-8.026-5.26 0-2.519 2.273-4.3 6.15-4.3a10.923 10.923 0 015.112 1.16l-1.281 2.745a7.63 7.63 0 00-3.828-.988c-1.731 0-2.472.543-2.472 1.235 0 2.274 8.027.074 8.027 5.309 0 2.47-2.3 4.223-6.273 4.223a11.4 11.4 0 01-5.754-1.432M86.133 24.664l2.045 2.223a6.959 6.959 0 01-5.478 2.146c-4.593 0-7.581-2.889-7.581-6.84a6.756 6.756 0 017.112-6.84 6.505 6.505 0 016.866 6.718l-9.829 1.902a3.5 3.5 0 003.531 1.976 4.506 4.506 0 003.334-1.285m-7.236-2.865l6.47-1.259a3.08 3.08 0 00-3.136-2.271c-1.926 0-3.259 1.284-3.333 3.531M95.714 22.195c0-4 3.087-6.84 7.31-6.84s7.29 2.84 7.29 6.84-3.063 6.84-7.285 6.84-7.315-2.839-7.315-6.84m10.693 0a3.353 3.353 0 00-3.383-3.679 3.371 3.371 0 00-3.41 3.679 3.37 3.37 0 003.41 3.679 3.353 3.353 0 003.383-3.679M116.632 15.848h3.407v2.964h-3.309v10.025h-3.852V15.256c0-2.988 1.827-4.939 5.137-4.939a5.4 5.4 0 012.938.716l-1.012 2.791a2.7 2.7 0 00-1.555-.468c-1.137-.001-1.754.616-1.754 1.925z"></path></g></svg>