<svg xmlns="http://www.w3.org/2000/svg" viewBox="0 0 3979.42 907.47"><defs><style>.cls-1{fill:#2eb454;}</style></defs><title>Asset 1</title><g id="Layer_2" data-name="Layer 2"><g id="Layer_1-2" data-name="Layer 1"><path class="cls-1" d="M895.37,800.94q-1.32,58.3-18.75,76.47T801,902q-64.59,5.19-96.89,5.18-68.49,0-88.52-20.73t-20-92Q598.2,740,580.12,626a27.63,27.63,0,0,0-15.52-20.74q-12.92-6.47-25.83,1.3-2.6,1.32-40.7,46.66t-65.25,46.65q-19.38,1.32-41.34-14.9a235.22,235.22,0,0,1-38.75-35.64q-16.82-19.44-20.68-20.74a22,22,0,0,0-20.68,0q-10.33,5.21-11.63,16.85-10.33,66.09-10.33,151.64,0,57-20.67,77.76t-78.81,23.31H65.9q-64.62,0-64.61-63.5-2.58-137.36,0-408.87T7.76,106.28Q11.63,48,77.52,40.17q94.32-9,147.93,17.52t93.68,121.15q7.74,14.28,16.14,29.18t20.67,33.7a226.57,226.57,0,0,0,25.21,32.39,259.22,259.22,0,0,0,25.83,24q12.91,10.37,25.84,9.07t23.27-14.25q23.25-29.82,74.28-110.16T589.15,92a108.37,108.37,0,0,1,35.53-33Q646,46.67,662.8,43.42T717.07,35q37.45-5.17,82.69-2.59,49.08-2.58,71,13.61t22,57.67q1.29,0,1.3,121.81l-1.3,121.83V466.56h2.6Z"></path><path class="cls-1" d="M999.55,878q-32.71-27.6-40.68-73.2-47.07-251.19,8-497.6,8-36,39.08-36.8,70.19-3.18,103.7-2.4,30.31.81,31.91,40.8.8,56.82,4,170.4,0,28.8,1.6,42.4,4,56.82,24.33,75.6t85.75,19.6q8.76,0,25.52-1.6t24.73-1.6q39.07-1.59,65-23.6t33.9-60.4q21.54-99.18,8.77-212-3.2-33.6,4.39-42t41.88-10q15.13-.78,45.47-2.4t44.67-1.6q23.13-.78,31.51,6.8t8.37,30q0,32,.8,94t1.2,100q.39,38-.4,91.2t-2.39,98q-1.62,53.61-42.28,132.8-23.94,47.22-67.41,64.8t-107.29,21.6q-201,8-294.35,6.4Q1032.25,905.61,999.55,878Z"></path><path class="cls-1" d="M1723.49,60.92q37.46-2.58,54.25-4.53t38.11,1.94q21.32,3.89,26.5,4.53T1863,78.41q15.49,14.9,19.37,22t23.91,36.94q20,29.82,31.66,47.94Q2046.47,342.16,2127.88,429q9,10.36,22.61,5.83t14.86-17.5q29.71-168.46,32.29-289,2.58-76.45,74.94-80.36,3.87,0,156.33-11.65,67.17-3.9,74.94,64.79,6.46,72.58,6.46,80.35Q2500,592.29,2492.22,802.23q-1.3,40.18-30.37,70t-70.41,33.69q-64.59,6.47-107.88-16.19T2177,808.7q-32.29-29.79-113.7-116.62T1949.58,575.42a69.65,69.65,0,0,0-18.09-12.95,65.77,65.77,0,0,0-22.61-6.49,23.41,23.41,0,0,0-20.67,7.79q-8.4,9.06-9.69,28.51-2.58,28.5-6.46,108.86t-6.46,103.67q-5.19,51.86-31,70.64T1744.16,893q-54.29,0-75.6-18.79t-25.18-71.93q-5.19-93.3-7.11-342.79t1.94-315.58Q1642.07,66.1,1723.49,60.92Z"></path><path class="cls-1" d="M2631.94,119.23q46.5-53.13,146-79.06Q2926.51,2.59,3230.13,0q47.82,0,41.34,48-5.14,44.07-16.14,130.91t-16.15,130.89q-5.16,42.78-50.39,44.06-53,2.61-158.91,13Q3004,370.66,2971.74,381q-58.15,20.75-79.47,55.74T2880,534q10.34,66.1,72.35,67.39,124,5.2,248.07,7.78,37.46,2.61,38.75,33.69,10.34,128.33,12.92,195.71,1.29,33.69-11.63,46.65t-47.79,15.55q-288.15,10.35-452.21-27.22-42.64-10.37-67.18-18.78T2621,823q-27.8-23.33-39.41-59.63Q2567.34,715.4,2563.46,648q-2.58-42.75,1.3-182.73t9-190.52Q2585.43,172.38,2631.94,119.23Z"></path><path class="cls-1" d="M3863.38,28.52q80.09,0,100.12,28.51t14.86,136.08q-7.76,171.08-12.92,579.31-1.32,115.37-93,128.3-41.34,5.21-66.53,6.48a157.91,157.91,0,0,1-47.8-4.53q-22.62-5.83-32.95-18.79T3706.39,845q-8.38-25.92-11-59.61t-2.58-88.14q-1.32-15.54-1.3-48,0-16.83-12.92-27.21t-28.42-6.48q-56.86,13-90.44,18.14-28.42,2.6-31,32.39,0,28.53-.64,61.56t-.65,44.72q0,115.37-69.76,128.3-31,5.21-49.75,6.48a84.5,84.5,0,0,1-34.89-4.53q-16.15-5.83-24.55-18.79T3334.3,845q-5.82-25.92-7.75-59.61t-1.94-88.14q-2.59-270.84,11.63-537.84,5.15-76.45,23.25-101.08t65.89-28.52q9-1.29,27.14-1.29,59.43,0,73.64,28.51t11.62,136.08q-2.58,36.28-2.58,129.59a33.32,33.32,0,0,0,11.63,25.94,31.14,31.14,0,0,0,27.14,7.77q45.21-5.19,99.48-19.44,25.83-6.47,25.83-32.41,5.16-99.8,9-145.15,5.16-76.45,30.36-101.08t89.8-28.52Q3840.12,28.52,3863.38,28.52Z"></path></g></g></svg>