<svg width="366px" height="120px" viewBox="0 0 366 120" version="1.1" xmlns="http://www.w3.org/2000/svg" xmlns:xlink="http://www.w3.org/1999/xlink" class="header__heading-logo" style="width: 100%; height: auto;">
  <g id="Category-page" stroke="none" stroke-width="1" fill="none" fill-rule="evenodd">
    <g id="desktop---filters-visible" transform="translate(-1201, -264)" fill="#1D1D1B" fill-rule="nonzero">
      <g id="Nailster-logo-R-Dark" transform="translate(1201, 264)">
        <path d="M333.859459,29.8378378 C333.859459,19.3297297 325.491892,10.8324324 314.983784,10.8324324 L301.362162,10.8324324 C298.443243,10.8324324 296.108108,13.2972973 296.108108,16.0864865 L296.108108,117.275676 C296.108108,118.767568 297.275676,119.935135 298.702703,119.935135 L303.956757,119.935135 C305.254054,119.935135 306.551351,118.767568 306.551351,117.275676 L306.551351,70.5081081 L314.918919,70.5081081 C319.524324,70.5081081 323.286486,74.2702703 323.286486,79.0054054 L323.286486,117.275676 C323.286486,118.767568 324.454054,119.935135 325.881081,119.935135 L331.135135,119.935135 C332.627027,119.935135 333.72973,118.767568 333.72973,117.275676 L333.72973,79.0702703 C333.72973,73.6216216 331.589189,68.7567568 328.021622,65.3189189 C331.654054,61.8810811 333.72973,57.1459459 333.72973,51.6972973 L333.859459,29.8378378 L333.859459,29.8378378 Z M323.351351,51.6324324 C323.351351,56.2378378 319.589189,60 314.983784,60 L306.616216,60 L306.616216,21.2756757 L314.983784,21.2756757 C319.589189,21.2756757 323.351351,25.0378378 323.351351,29.8378378 L323.351351,51.6324324 Z M110.464865,10.8324324 L105.210811,10.8324324 C103.718919,10.8324324 102.616216,12.1297297 102.616216,13.4918919 L102.616216,117.275676 C102.616216,118.767568 103.783784,119.935135 105.210811,119.935135 L110.464865,119.935135 C111.956757,119.935135 113.059459,118.767568 113.059459,117.275676 L113.059459,13.427027 C113.059459,12.1297297 111.891892,10.8324324 110.464865,10.8324324 Z M69.7945946,10.8324324 C59.2864865,10.8324324 50.7891892,19.3945946 50.7891892,29.8378378 L50.7891892,117.275676 C50.7891892,118.767568 52.0864865,119.935135 53.3837838,119.935135 L58.6378378,119.935135 C60.1297297,119.935135 61.2324324,118.767568 61.2324324,117.275676 L61.2324324,70.5081081 L78.0972973,70.5081081 L78.0972973,117.275676 C78.0972973,118.767568 79.2648649,119.935135 80.6918919,119.935135 L85.9459459,119.935135 C87.4378378,119.935135 88.5405405,118.767568 88.5405405,117.275676 L88.5405405,29.8378378 C88.6702703,19.3297297 80.172973,10.8324324 69.7945946,10.8324324 L69.7945946,10.8324324 Z M78.1621622,60 L61.2972973,60 L61.2972973,29.8378378 C61.2972973,25.1027027 65.0594595,21.2756757 69.7945946,21.2756757 C74.5297297,21.2756757 78.1621622,25.0378378 78.1621622,29.8378378 L78.1621622,60 Z M19.0054054,10.8324324 C8.4972973,10.8324324 0,19.3945946 0,29.8378378 L0,117.275676 C0,118.767568 1.16756757,119.935135 2.65945946,119.935135 L7.91351351,119.935135 C9.40540541,119.935135 10.572973,118.767568 10.572973,117.275676 L10.572973,29.8378378 C10.572973,25.1027027 14.3351351,21.2756757 19.0702703,21.2756757 C23.8054054,21.2756757 27.4378378,25.0378378 27.4378378,29.8378378 L27.4378378,117.275676 C27.4378378,118.767568 28.6054054,119.935135 30.0324324,119.935135 L35.2864865,119.935135 C36.7783784,119.935135 37.8810811,118.767568 37.8810811,117.275676 L37.8810811,29.8378378 C37.8810811,19.3297297 29.3189189,10.8324324 19.0054054,10.8324324 L19.0054054,10.8324324 Z M281.124324,10.8324324 L261.6,10.8324324 C258.681081,10.8324324 256.345946,13.2972973 256.345946,16.0864865 L256.345946,114.681081 C256.345946,117.664865 258.616216,119.935135 261.6,119.935135 L281.124324,119.935135 C282.616216,119.935135 283.718919,118.767568 283.718919,117.275676 L283.718919,112.021622 C283.718919,110.724324 282.551351,109.362162 281.124324,109.362162 L266.854054,109.362162 L266.854054,70.6378378 L281.124324,70.6378378 C282.616216,70.6378378 283.718919,69.3405405 283.718919,67.9783784 L283.718919,62.7891892 C283.718919,61.2972973 282.551351,60.1297297 281.124324,60.1297297 L266.854054,60.1297297 L266.854054,21.2756757 L281.124324,21.2756757 C282.616216,21.2756757 283.718919,20.1081081 283.718919,18.6162162 L283.718919,13.3621622 C283.718919,12.1297297 282.616216,10.7675676 281.124324,10.8324324 L281.124324,10.8324324 Z M240.908108,10.8324324 L215.610811,10.8324324 C214.118919,10.8324324 213.016216,12.1297297 213.016216,13.4918919 L213.016216,18.6810811 C213.016216,20.172973 214.183784,21.3405405 215.610811,21.3405405 L223.005405,21.3405405 L223.005405,117.340541 C223.005405,118.832432 224.172973,120 225.6,120 L230.854054,120 C232.345946,120 233.448649,118.832432 233.448649,117.340541 L233.448649,21.3405405 L240.843243,21.3405405 C242.335135,21.3405405 243.437838,20.172973 243.437838,18.6810811 L243.437838,13.427027 C243.502703,12.1297297 242.335135,10.8324324 240.908108,10.8324324 Z M152.172973,109.427027 L138.032432,109.427027 L138.032432,13.427027 C138.032432,12.1297297 136.735135,10.7675676 135.437838,10.7675676 L130.183784,10.7675676 C128.691892,10.7675676 127.589189,12.0648649 127.589189,13.427027 L127.589189,114.681081 C127.589189,117.664865 129.859459,119.935135 132.843243,119.935135 L152.237838,119.935135 C153.72973,119.935135 154.832432,118.767568 154.832432,117.275676 L154.832432,112.021622 C154.767568,110.724324 153.664865,109.427027 152.172973,109.427027 L152.172973,109.427027 Z M183.632432,10.8324324 C173.318919,10.8324324 164.756757,19.3945946 164.756757,29.7081081 L164.756757,38.0756757 C164.756757,41.3837838 165.794595,44.8864865 167.87027,48.5837838 L191.481081,90.227027 C191.805405,90.7459459 192,91.6540541 192,92.8864865 L192,101.059459 C192,105.794595 188.237838,109.556757 183.632432,109.556757 C179.027027,109.556757 175.264865,105.794595 175.264865,101.059459 L175.264865,95.4810811 C175.264865,94.1837838 174.097297,92.8216216 172.67027,92.8216216 L167.416216,92.8216216 C165.924324,92.8216216 164.821622,94.1189189 164.821622,95.4810811 L164.821622,101.059459 C164.821622,111.567568 173.318919,119.935135 183.697297,119.935135 C194.075676,119.935135 202.572973,111.567568 202.572973,101.059459 L202.572973,92.8864865 C202.572973,89.7081081 201.535135,86.2702703 199.459459,82.572973 L175.718919,40.8648649 C175.394595,40.3459459 175.2,39.372973 175.2,38.0756757 L175.2,29.7081081 C175.2,25.1027027 178.962162,21.3405405 183.567568,21.3405405 C188.172973,21.3405405 191.935135,25.1027027 191.935135,29.7081081 L191.935135,35.2864865 C191.935135,36.7783784 193.102703,37.9459459 194.52973,37.9459459 L199.783784,37.9459459 C201.275676,37.9459459 202.378378,36.7783784 202.378378,35.2864865 L202.378378,29.7081081 C202.508108,19.3297297 193.945946,10.8324324 183.632432,10.8324324 L183.632432,10.8324324 Z" id="Shape"></path>
        <path d="M341.318919,12.7783784 C341.318919,10.4432432 341.837838,8.3027027 342.940541,6.35675676 C344.043243,4.34594595 345.47027,2.78918919 347.416216,1.68648649 C349.297297,0.518918919 351.372973,0 353.578378,0 C355.783784,0 357.794595,0.583783784 359.740541,1.68648649 C361.621622,2.85405405 363.113514,4.41081081 364.216216,6.35675676 C365.318919,8.36756757 365.837838,10.5081081 365.837838,12.7783784 C365.837838,15.0486486 365.318919,17.2540541 364.216216,19.2648649 C363.113514,21.2756757 361.621622,22.8324324 359.740541,23.9351351 C357.859459,25.1027027 355.848649,25.6216216 353.643243,25.6216216 C351.437838,25.6216216 349.362162,25.0378378 347.481081,23.8702703 C345.6,22.7027027 344.108108,21.1459459 343.005405,19.2 C341.837838,17.2540541 341.318919,15.1135135 341.318919,12.7783784 L341.318919,12.7783784 Z M343.394595,12.7783784 C343.394595,14.6594595 343.848649,16.4108108 344.691892,18.0972973 C345.535135,19.7189189 346.767568,21.0810811 348.324324,22.0540541 C349.881081,23.027027 351.632432,23.5459459 353.513514,23.5459459 C355.394595,23.5459459 357.145946,23.027027 358.702703,22.0540541 C360.259459,21.0810811 361.491892,19.7837838 362.335135,18.0972973 C363.178378,16.4756757 363.632432,14.6594595 363.632432,12.7783784 C363.632432,10.8972973 363.178378,9.08108108 362.335135,7.45945946 C361.491892,5.83783784 360.259459,4.54054054 358.702703,3.5027027 C357.145946,2.52972973 355.394595,2.01081081 353.513514,2.01081081 C351.632432,2.01081081 350.010811,2.46486486 348.454054,3.43783784 C346.897297,4.34594595 345.664865,5.64324324 344.756757,7.32972973 C343.848649,9.01621622 343.394595,10.8324324 343.394595,12.7783784 L343.394595,12.7783784 Z M351.048649,14.0756757 L351.048649,19.8486486 L348.454054,19.8486486 L348.454054,5.25405405 L353.318919,5.25405405 C355.07027,5.25405405 356.432432,5.64324324 357.405405,6.42162162 C358.378378,7.2 358.897297,8.3027027 358.897297,9.79459459 C358.897297,11.027027 358.248649,12 357.081081,12.7135135 C357.72973,13.1027027 358.183784,13.5567568 358.443243,14.2054054 C358.702703,14.8540541 358.832432,15.6324324 358.832432,16.6054054 C358.832432,17.5783784 358.832432,18.227027 358.897297,18.6162162 C358.962162,19.0054054 359.027027,19.3297297 359.156757,19.5891892 L359.156757,19.8486486 L356.497297,19.8486486 C356.367568,19.4594595 356.302703,18.3567568 356.302703,16.4756757 C356.302703,15.6324324 356.108108,14.9837838 355.718919,14.5945946 C355.32973,14.2054054 354.681081,14.0108108 353.837838,14.0108108 L351.048649,14.0756757 L351.048649,14.0756757 Z M351.048649,11.8054054 L353.254054,11.8054054 C354.097297,11.8054054 354.875676,11.6108108 355.459459,11.2864865 C356.043243,10.8972973 356.302703,10.4432432 356.302703,9.85945946 C356.302703,9.08108108 356.108108,8.4972973 355.718919,8.17297297 C355.32973,7.84864865 354.551351,7.65405405 353.513514,7.65405405 L351.113514,7.65405405 L351.048649,11.8054054 L351.048649,11.8054054 Z" id="Shape"></path>
      </g>
    </g>
  </g>
</svg>